<svg width="1366" height="768" viewBox="0 0 1366 768" fill="none" xmlns="http://www.w3.org/2000/svg">
<path opacity="0.21" fill-rule="evenodd" clip-rule="evenodd" d="M700.479 0.000190735C700.48 0.18663 700.481 0.373604 700.481 0.560402C700.481 36.1496 671.612 65 636 65C600.388 65 571.519 36.1496 571.519 0.560402C571.519 0.373589 571.52 0.18663 571.521 0.000190735L700.479 0.000190735Z" fill="#825EEE"/>
<path opacity="0.21" fill-rule="evenodd" clip-rule="evenodd" d="M407.019 108.939C407.019 84.6717 426.71 64.9996 451 64.9996C475.29 64.9996 494.981 84.6717 494.981 108.939C494.981 133.206 475.29 152.878 451 152.878C426.71 152.878 407.019 133.206 407.019 108.939Z" fill="#3DD47E"/>
<path fill-rule="evenodd" clip-rule="evenodd" d="M679.67 482.428C678.235 481.6 677.743 479.765 678.572 478.33L683.572 469.67C684.4 468.235 686.235 467.743 687.67 468.572L696.33 473.572C697.765 474.4 698.257 476.235 697.428 477.67L692.428 486.33C691.6 487.765 689.765 488.257 688.33 487.428L679.67 482.428Z" fill="#588FFF"/>
<path fill-rule="evenodd" clip-rule="evenodd" d="M1198.67 192.428C1197.24 193.256 1195.4 192.765 1194.57 191.33L1189.57 182.67C1188.74 181.235 1189.24 179.4 1190.67 178.572L1199.33 173.572C1200.77 172.743 1202.6 173.235 1203.43 174.67L1208.43 183.33C1209.26 184.765 1208.77 186.6 1207.33 187.428L1198.67 192.428Z" fill="#FF761B"/>
<path fill-rule="evenodd" clip-rule="evenodd" d="M1283.43 686.9C1283 688.5 1281.36 689.45 1279.76 689.021L1270.1 686.433C1268.5 686.004 1267.55 684.359 1267.98 682.759L1270.57 673.1C1271 671.499 1272.64 670.549 1274.24 670.978L1283.9 673.566C1285.5 673.995 1286.45 675.64 1286.02 677.241L1283.43 686.9Z" fill="#825EEE"/>
<path fill-rule="evenodd" clip-rule="evenodd" d="M873 177C871.343 177 870 175.657 870 174V170C870 168.343 871.343 167 873 167H877C878.657 167 880 168.343 880 170V174C880 175.657 878.657 177 877 177H873Z" fill="#282A5B"/>
<path opacity="0.21" fill-rule="evenodd" clip-rule="evenodd" d="M1047.61 416.979C1047.25 416.979 1046.89 416.977 1046.53 416.974V168.016C1046.89 168.013 1047.25 168.011 1047.61 168.011C1116.05 168.011 1171.53 223.744 1171.53 292.495C1171.53 361.245 1116.05 416.979 1047.61 416.979Z" fill="#FFAB36"/>
<path fill-rule="evenodd" clip-rule="evenodd" d="M720.999 277.49C723.426 277.49 725.655 278.321 727.434 279.704L732.894 274.494C729.719 271.695 725.564 269.983 720.999 269.983C714.082 269.983 708.083 273.887 705.065 279.607L711.136 284.401C712.607 280.372 716.462 277.49 720.999 277.49L720.999 277.49Z" fill="#F5594E"/>
<path fill-rule="evenodd" clip-rule="evenodd" d="M738.86 290.253C738.954 289.514 739.016 288.761 739.016 287.997C739.016 286.709 738.875 285.454 738.619 284.242H721V291.752H730.738C729.95 293.8 728.547 295.533 726.762 296.737L732.857 301.55C736.088 298.714 738.298 294.741 738.86 290.253V290.253Z" fill="#39A0F4"/>
<path fill-rule="evenodd" clip-rule="evenodd" d="M710.485 287.997C710.485 286.73 710.72 285.522 711.13 284.397L705.062 279.602C703.74 282.11 702.983 284.964 702.983 287.997C702.983 290.996 703.726 293.818 705.021 296.306L711.096 291.505C710.707 290.406 710.485 289.229 710.485 287.997V287.997Z" fill="#FFC721"/>
<path fill-rule="evenodd" clip-rule="evenodd" d="M720.999 298.509C716.427 298.509 712.547 295.583 711.102 291.505L705.022 296.306C708.026 302.073 714.047 306.017 720.999 306.017C725.545 306.017 729.69 304.328 732.856 301.548L726.761 296.736C725.115 297.846 723.144 298.509 720.999 298.509V298.509Z" fill="#00CA6F"/>
<path opacity="0.1" fill-rule="evenodd" clip-rule="evenodd" d="M720.996 305.641C715.694 305.641 710.926 303.454 707.555 299.968C710.855 303.671 715.646 306.017 720.996 306.017C726.297 306.017 731.049 303.718 734.341 300.073C730.98 303.501 726.248 305.641 720.996 305.641Z" fill="white"/>
<path opacity="0.1" fill-rule="evenodd" clip-rule="evenodd" d="M721 291.377V291.758H730.74L730.892 291.377H721Z" fill="white"/>
<path fill-rule="evenodd" clip-rule="evenodd" d="M739.009 288.221C739.01 288.147 739.017 288.073 739.017 287.998C739.017 287.977 739.014 287.957 739.014 287.935C739.013 288.031 739.009 288.126 739.009 288.221Z" fill="#262626"/>
<path fill-rule="evenodd" clip-rule="evenodd" d="M738.619 284.247H721V291.753H730.738C729.223 295.689 725.469 298.51 721 298.51C715.195 298.51 710.49 293.804 710.49 288C710.49 282.196 715.195 277.49 721 277.49C723.104 277.49 725.044 278.137 726.688 279.203C726.939 279.366 727.199 279.52 727.435 279.703L732.896 274.494L732.772 274.399C729.613 271.661 725.509 269.983 721 269.983C711.049 269.983 702.983 278.05 702.983 288C702.983 297.95 711.049 306.017 721 306.017C730.184 306.017 737.748 299.138 738.86 290.255C738.954 289.517 739.016 288.764 739.016 288C739.016 286.712 738.875 285.458 738.619 284.247V284.247Z" fill="url(#paint0_linear_12_1052)"/>
<path opacity="0.1" fill-rule="evenodd" clip-rule="evenodd" d="M726.686 278.829C725.042 277.763 723.103 277.116 720.998 277.116C715.193 277.116 710.488 281.821 710.488 287.625C710.488 287.689 710.489 287.738 710.49 287.801C710.591 282.085 715.257 277.491 720.998 277.491C723.103 277.491 725.042 278.138 726.686 279.204C726.937 279.367 727.197 279.521 727.433 279.704L732.894 274.495L727.433 279.329C727.197 279.145 726.937 278.992 726.686 278.829H726.686Z" fill="white"/>
<path fill-rule="evenodd" clip-rule="evenodd" d="M714.419 652.387H707.137V647.519C707.137 646.175 708.224 645.085 709.565 645.085H711.992V639H707.137C703.115 639 699.855 642.269 699.855 646.302V652.387H695V658.472H699.855V677.944H707.137V658.472H711.992L714.419 652.387Z" fill="#328CE7"/>
<path fill-rule="evenodd" clip-rule="evenodd" d="M1169.39 329.908H1168.71C1168.39 329.908 1168.07 329.941 1167.75 330.007L1139.88 335.917C1137.78 336.364 1136.24 338.253 1136.24 340.409C1136.24 342.94 1138.3 345 1140.84 345H1141.52C1141.84 345 1142.16 344.967 1142.47 344.901L1170.35 338.99C1172.45 338.544 1173.99 336.654 1173.99 334.499C1173.99 331.967 1171.93 329.908 1169.39 329.908Z" fill="#89D3DE"/>
<path fill-rule="evenodd" clip-rule="evenodd" d="M1173.16 345H1172.48C1172.16 345 1171.84 345.033 1171.52 345.099L1143.65 351.01C1141.54 351.457 1140.01 353.346 1140.01 355.501C1140.01 358.033 1142.07 360.092 1144.6 360.092H1145.29C1145.61 360.092 1145.93 360.059 1146.24 359.993L1174.11 354.083C1176.22 353.636 1177.75 351.747 1177.75 349.591C1177.75 347.06 1175.69 345 1173.16 345H1173.16Z" fill="#E4346B"/>
<path fill-rule="evenodd" clip-rule="evenodd" d="M1171.99 355.756L1166.08 327.885C1165.63 325.776 1163.75 324.245 1161.59 324.245C1159.06 324.245 1157 326.306 1157 328.838V329.524C1157 329.848 1157.03 330.169 1157.1 330.476L1163.01 358.347C1163.46 360.456 1165.34 361.987 1167.5 361.987C1170.03 361.987 1172.09 359.926 1172.09 357.394V356.708C1172.09 356.384 1172.06 356.063 1171.99 355.756V355.756Z" fill="#EEBB43"/>
<path fill-rule="evenodd" clip-rule="evenodd" d="M1156.9 359.524L1150.99 331.653C1150.54 329.544 1148.65 328.013 1146.5 328.013C1143.97 328.013 1141.91 330.074 1141.91 332.606V333.292C1141.91 333.616 1141.94 333.937 1142.01 334.244L1147.92 362.115C1148.36 364.224 1150.25 365.755 1152.41 365.755C1154.94 365.755 1157 363.694 1157 361.162V360.476C1157 360.153 1156.97 359.831 1156.9 359.524H1156.9Z" fill="#77C9AD"/>
<path fill-rule="evenodd" clip-rule="evenodd" d="M1147.42 359.752L1145.48 350.62L1154.6 348.685L1156.54 357.817L1147.42 359.752Z" fill="#E8CCE8"/>
<path fill-rule="evenodd" clip-rule="evenodd" d="M1162.62 356.521L1160.68 347.399L1169.82 345.462L1171.75 354.584L1162.62 356.521Z" fill="#DE353A"/>
<path fill-rule="evenodd" clip-rule="evenodd" d="M1144.18 344.539L1142.25 335.417L1151.38 333.479L1153.31 342.602L1144.18 344.539Z" fill="#2BA085"/>
<path fill-rule="evenodd" clip-rule="evenodd" d="M1159.4 341.315L1157.46 332.183L1166.58 330.248L1168.52 339.38L1159.4 341.315Z" fill="#92AE43"/>
<path fill-rule="evenodd" clip-rule="evenodd" d="M1154.6 348.69L1153.31 342.602L1159.4 341.31L1160.69 347.398L1154.6 348.69ZM1173.16 345H1172.48C1172.16 345 1171.84 345.033 1171.53 345.1L1169.81 345.463L1168.52 339.375L1170.34 338.989C1172.45 338.542 1173.98 336.652 1173.98 334.496C1173.98 331.964 1171.92 329.904 1169.39 329.904H1168.7C1168.39 329.904 1168.07 329.937 1167.75 330.003L1166.59 330.25L1166.08 327.882C1165.64 325.773 1163.75 324.243 1161.59 324.243C1159.06 324.243 1157 326.303 1157 328.835V329.521C1157 329.845 1157.03 330.166 1157.1 330.473L1157.46 332.186L1151.37 333.477L1150.99 331.656C1150.54 329.547 1148.65 328.017 1146.5 328.017C1143.96 328.017 1141.9 330.077 1141.9 332.609V333.295C1141.9 333.619 1141.94 333.94 1142 334.247L1142.25 335.413L1139.88 335.915C1137.77 336.362 1136.24 338.252 1136.24 340.408C1136.24 342.94 1138.3 345 1140.83 345H1141.52C1141.84 345 1142.16 344.967 1142.47 344.9L1144.19 344.537L1145.48 350.625L1143.66 351.011C1141.55 351.458 1140.02 353.348 1140.02 355.504C1140.02 358.036 1142.08 360.096 1144.61 360.096H1145.29C1145.61 360.096 1145.93 360.063 1146.25 359.997L1147.41 359.75L1147.91 362.118C1148.36 364.227 1150.25 365.757 1152.41 365.757C1154.94 365.757 1157 363.697 1157 361.165V360.479C1157 360.155 1156.97 359.834 1156.9 359.527L1156.54 357.814L1162.62 356.523L1163.01 358.344C1163.46 360.453 1165.35 361.983 1167.5 361.983C1170.04 361.983 1172.1 359.923 1172.1 357.391V356.705C1172.1 356.381 1172.06 356.06 1172 355.753L1171.75 354.587L1174.12 354.085C1176.23 353.638 1177.76 351.748 1177.76 349.592C1177.76 347.06 1175.7 345 1173.16 345L1173.16 345Z" fill="url(#paint1_linear_12_1052)"/>
<defs>
<linearGradient id="paint0_linear_12_1052" x1="702.98" y1="306.02" x2="739.02" y2="306.02" gradientUnits="userSpaceOnUse">
<stop stop-color="white" stop-opacity="0.2"/>
<stop offset="1" stop-color="white" stop-opacity="0.01"/>
</linearGradient>
<linearGradient id="paint1_linear_12_1052" x1="1128.85" y1="355.25" x2="1167.25" y2="373.15" gradientUnits="userSpaceOnUse">
<stop stop-color="white" stop-opacity="0.2"/>
<stop offset="1" stop-color="white" stop-opacity="0.01"/>
</linearGradient>
</defs>
</svg>
