<svg width="1074" height="438" viewBox="0 0 1074 438" fill="none" xmlns="http://www.w3.org/2000/svg">
<path opacity="0.19" fill-rule="evenodd" clip-rule="evenodd" d="M674 437.982C666.268 437.982 660 431.714 660 423.982V364C660 356.268 666.268 350 674 350H736.796C744.528 350 750.796 356.268 750.796 364V423.982C750.796 431.714 744.528 437.982 736.796 437.982H674Z" fill="#9ECBFF"/>
<path opacity="0.19" fill-rule="evenodd" clip-rule="evenodd" d="M144.141 137.849C136.409 137.849 130.141 131.581 130.141 123.849V63.8668C130.141 56.1348 136.409 49.8668 144.141 49.8668H206.937C214.669 49.8668 220.937 56.1348 220.937 63.8668V123.849C220.937 131.581 214.669 137.849 206.937 137.849H144.141Z" fill="#9ECBFF"/>
<path opacity="0.21" fill-rule="evenodd" clip-rule="evenodd" d="M443.039 167.202C442.791 166.945 442.545 166.687 442.301 166.428L625.988 0.446482C626.237 0.700956 626.485 0.956946 626.732 1.2139C673.824 50.1483 670.878 126.975 620.152 172.811C569.427 218.647 490.13 216.136 443.039 167.202Z" fill="#F53D6B"/>
<path fill-rule="evenodd" clip-rule="evenodd" d="M618.298 279.813C619.36 281.084 619.165 282.944 617.862 283.967L610.038 290.106C608.734 291.129 606.816 290.927 605.754 289.656L599.443 282.105C598.381 280.833 598.576 278.973 599.879 277.951L607.703 271.811C609.007 270.788 610.925 270.99 611.987 272.261L618.298 279.813Z" fill="#FF6701"/>
<path fill-rule="evenodd" clip-rule="evenodd" d="M1041.73 405.423C1042.79 406.695 1042.59 408.555 1041.29 409.577L1033.46 415.717C1032.16 416.74 1030.24 416.538 1029.18 415.267L1022.87 407.715C1021.81 406.444 1022 404.584 1023.31 403.561L1031.13 397.422C1032.43 396.399 1034.35 396.601 1035.41 397.872L1041.73 405.423Z" fill="#FF6701"/>
<path fill-rule="evenodd" clip-rule="evenodd" d="M218.517 369.61C219.579 370.881 219.384 372.741 218.08 373.764L210.256 379.903C208.953 380.926 207.035 380.725 205.972 379.453L199.662 371.902C198.599 370.63 198.795 368.771 200.098 367.748L207.922 361.608C209.226 360.586 211.144 360.787 212.206 362.059L218.517 369.61Z" fill="#FF6701"/>
<path fill-rule="evenodd" clip-rule="evenodd" d="M1071.02 95.1914C1072.67 95.3593 1073.86 96.8307 1073.68 98.4779L1072.64 108.068C1072.46 109.716 1070.98 110.915 1069.33 110.747L1059.25 109.72C1057.6 109.552 1056.41 108.081 1056.59 106.433L1057.63 96.843C1057.8 95.1958 1059.29 93.9965 1060.93 94.1644L1071.02 95.1914Z" fill="#7047EB"/>
<path fill-rule="evenodd" clip-rule="evenodd" d="M14.7582 421.702C16.4065 421.87 17.5979 423.341 17.4192 424.988L16.379 434.579C16.2003 436.226 14.7193 437.425 13.0709 437.257L2.98698 436.23C1.33865 436.062 0.147255 434.591 0.32592 432.944L1.36616 423.353C1.54483 421.706 3.0259 420.507 4.67423 420.675L14.7582 421.702Z" fill="#7047EB"/>
<path fill-rule="evenodd" clip-rule="evenodd" d="M769.374 234.007C771.022 234.175 772.213 235.647 772.035 237.294L770.994 246.884C770.816 248.531 769.335 249.731 767.686 249.563L757.602 248.536C755.954 248.368 754.763 246.896 754.941 245.249L755.982 235.659C756.16 234.012 757.641 232.812 759.29 232.98L769.374 234.007Z" fill="#7047EB"/>
</svg>
