<svg width="1362" height="764" viewBox="0 0 1362 764" fill="none" xmlns="http://www.w3.org/2000/svg">
<path opacity="0.21" fill-rule="evenodd" clip-rule="evenodd" d="M403.019 104.939C403.019 80.6717 422.71 60.9996 447 60.9996C471.29 60.9996 490.981 80.6717 490.981 104.939C490.981 129.206 471.29 148.878 447 148.878C422.71 148.878 403.019 129.206 403.019 104.939Z" fill="#3DD47E"/>
<path fill-rule="evenodd" clip-rule="evenodd" d="M675.67 478.428C674.235 477.6 673.743 475.765 674.572 474.33L679.572 465.67C680.4 464.235 682.235 463.743 683.67 464.572L692.33 469.572C693.765 470.4 694.257 472.235 693.428 473.67L688.428 482.33C687.6 483.765 685.765 484.257 684.33 483.428L675.67 478.428Z" fill="#588FFF"/>
<path fill-rule="evenodd" clip-rule="evenodd" d="M1194.67 188.428C1193.24 189.256 1191.4 188.765 1190.57 187.33L1185.57 178.67C1184.74 177.235 1185.24 175.4 1186.67 174.572L1195.33 169.572C1196.77 168.743 1198.6 169.235 1199.43 170.67L1204.43 179.33C1205.26 180.765 1204.77 182.6 1203.33 183.428L1194.67 188.428Z" fill="#FF761B"/>
<path fill-rule="evenodd" clip-rule="evenodd" d="M1279.43 682.9C1279 684.5 1277.36 685.45 1275.76 685.021L1266.1 682.433C1264.5 682.004 1263.55 680.359 1263.98 678.759L1266.57 669.1C1267 667.499 1268.64 666.549 1270.24 666.978L1279.9 669.566C1281.5 669.995 1282.45 671.64 1282.02 673.241L1279.43 682.9Z" fill="#825EEE"/>
<path fill-rule="evenodd" clip-rule="evenodd" d="M869 173C867.343 173 866 171.657 866 170V166C866 164.343 867.343 163 869 163H873C874.657 163 876 164.343 876 166V170C876 171.657 874.657 173 873 173H869Z" fill="#282A5B"/>
<path opacity="0.21" fill-rule="evenodd" clip-rule="evenodd" d="M1043.61 412.979C1043.25 412.979 1042.89 412.977 1042.53 412.974V164.016C1042.89 164.013 1043.25 164.011 1043.61 164.011C1112.05 164.011 1167.53 219.744 1167.53 288.495C1167.53 357.245 1112.05 412.979 1043.61 412.979Z" fill="#FFAB36"/>
<path fill-rule="evenodd" clip-rule="evenodd" d="M1165.39 325.908H1164.71C1164.39 325.908 1164.07 325.941 1163.75 326.007L1135.88 331.917C1133.78 332.364 1132.24 334.253 1132.24 336.409C1132.24 338.94 1134.3 341 1136.84 341H1137.52C1137.84 341 1138.16 340.967 1138.47 340.901L1166.35 334.99C1168.45 334.544 1169.99 332.654 1169.99 330.499C1169.99 327.967 1167.93 325.908 1165.39 325.908Z" fill="#89D3DE"/>
<path fill-rule="evenodd" clip-rule="evenodd" d="M1169.16 341H1168.48C1168.16 341 1167.84 341.033 1167.52 341.099L1139.65 347.01C1137.54 347.457 1136.01 349.346 1136.01 351.501C1136.01 354.033 1138.07 356.092 1140.6 356.092H1141.29C1141.61 356.092 1141.93 356.059 1142.24 355.993L1170.11 350.083C1172.22 349.636 1173.75 347.747 1173.75 345.591C1173.75 343.06 1171.69 341 1169.16 341H1169.16Z" fill="#E4346B"/>
<path fill-rule="evenodd" clip-rule="evenodd" d="M1167.99 351.756L1162.08 323.885C1161.63 321.776 1159.75 320.245 1157.59 320.245C1155.06 320.245 1153 322.306 1153 324.838V325.524C1153 325.848 1153.03 326.169 1153.1 326.476L1159.01 354.347C1159.46 356.456 1161.34 357.987 1163.5 357.987C1166.03 357.987 1168.09 355.926 1168.09 353.394V352.708C1168.09 352.384 1168.06 352.063 1167.99 351.756V351.756Z" fill="#EEBB43"/>
<path fill-rule="evenodd" clip-rule="evenodd" d="M1152.9 355.524L1146.99 327.653C1146.54 325.544 1144.65 324.013 1142.5 324.013C1139.97 324.013 1137.91 326.074 1137.91 328.606V329.292C1137.91 329.616 1137.94 329.937 1138.01 330.244L1143.92 358.115C1144.36 360.224 1146.25 361.755 1148.41 361.755C1150.94 361.755 1153 359.694 1153 357.162V356.476C1153 356.153 1152.97 355.831 1152.9 355.524H1152.9Z" fill="#77C9AD"/>
<path fill-rule="evenodd" clip-rule="evenodd" d="M1143.42 355.752L1141.48 346.62L1150.6 344.685L1152.54 353.817L1143.42 355.752Z" fill="#E8CCE8"/>
<path fill-rule="evenodd" clip-rule="evenodd" d="M1158.62 352.521L1156.68 343.399L1165.82 341.462L1167.75 350.584L1158.62 352.521Z" fill="#DE353A"/>
<path fill-rule="evenodd" clip-rule="evenodd" d="M1140.18 340.539L1138.25 331.417L1147.38 329.479L1149.31 338.602L1140.18 340.539Z" fill="#2BA085"/>
<path fill-rule="evenodd" clip-rule="evenodd" d="M1155.4 337.315L1153.46 328.183L1162.58 326.248L1164.52 335.38L1155.4 337.315Z" fill="#92AE43"/>
<path fill-rule="evenodd" clip-rule="evenodd" d="M1150.6 344.69L1149.31 338.602L1155.4 337.31L1156.69 343.398L1150.6 344.69ZM1169.16 341H1168.48C1168.16 341 1167.84 341.033 1167.53 341.1L1165.81 341.463L1164.52 335.375L1166.34 334.989C1168.45 334.542 1169.98 332.652 1169.98 330.496C1169.98 327.964 1167.92 325.904 1165.39 325.904H1164.7C1164.39 325.904 1164.07 325.937 1163.75 326.003L1162.59 326.25L1162.08 323.882C1161.64 321.773 1159.75 320.243 1157.59 320.243C1155.06 320.243 1153 322.303 1153 324.835V325.521C1153 325.845 1153.03 326.166 1153.1 326.473L1153.46 328.186L1147.37 329.477L1146.99 327.656C1146.54 325.547 1144.65 324.017 1142.5 324.017C1139.96 324.017 1137.9 326.077 1137.9 328.609V329.295C1137.9 329.619 1137.94 329.94 1138 330.247L1138.25 331.413L1135.88 331.915C1133.77 332.362 1132.24 334.252 1132.24 336.408C1132.24 338.94 1134.3 341 1136.83 341H1137.52C1137.84 341 1138.16 340.967 1138.47 340.9L1140.19 340.537L1141.48 346.625L1139.66 347.011C1137.55 347.458 1136.02 349.348 1136.02 351.504C1136.02 354.036 1138.08 356.096 1140.61 356.096H1141.29C1141.61 356.096 1141.93 356.063 1142.25 355.997L1143.41 355.75L1143.91 358.118C1144.36 360.227 1146.25 361.757 1148.41 361.757C1150.94 361.757 1153 359.697 1153 357.165V356.479C1153 356.155 1152.97 355.834 1152.9 355.527L1152.54 353.814L1158.62 352.523L1159.01 354.344C1159.46 356.453 1161.35 357.983 1163.5 357.983C1166.04 357.983 1168.1 355.923 1168.1 353.391V352.705C1168.1 352.381 1168.06 352.06 1168 351.753L1167.75 350.587L1170.12 350.085C1172.23 349.638 1173.76 347.748 1173.76 345.592C1173.76 343.06 1171.7 341 1169.16 341L1169.16 341Z" fill="url(#paint0_linear_12_1052)"/>
<defs>
<linearGradient id="paint0_linear_12_1052" x1="1124.85" y1="351.25" x2="1163.25" y2="369.15" gradientUnits="userSpaceOnUse">
<stop stop-color="white" stop-opacity="0.2"/>
<stop offset="1" stop-color="white" stop-opacity="0.01"/>
</linearGradient>
</defs>
</svg>
