<svg width="1366" height="768" viewBox="0 0 1366 768" fill="none" xmlns="http://www.w3.org/2000/svg">
<path opacity="0.21" fill-rule="evenodd" clip-rule="evenodd" d="M700.479 0.000190735C700.48 0.18663 700.481 0.373604 700.481 0.560402C700.481 36.1496 671.612 65 636 65C600.388 65 571.519 36.1496 571.519 0.560402C571.519 0.373589 571.52 0.18663 571.521 0.000190735L700.479 0.000190735Z" fill="#825EEE"/>
<path opacity="0.21" fill-rule="evenodd" clip-rule="evenodd" d="M407.019 108.939C407.019 84.6717 426.71 64.9996 451 64.9996C475.29 64.9996 494.981 84.6717 494.981 108.939C494.981 133.206 475.29 152.878 451 152.878C426.71 152.878 407.019 133.206 407.019 108.939Z" fill="#3DD47E"/>
<path fill-rule="evenodd" clip-rule="evenodd" d="M679.67 482.428C678.235 481.6 677.743 479.765 678.572 478.33L683.572 469.67C684.4 468.235 686.235 467.743 687.67 468.572L696.33 473.572C697.765 474.4 698.257 476.235 697.428 477.67L692.428 486.33C691.6 487.765 689.765 488.257 688.33 487.428L679.67 482.428Z" fill="#588FFF"/>
<path fill-rule="evenodd" clip-rule="evenodd" d="M1198.67 192.428C1197.24 193.256 1195.4 192.765 1194.57 191.33L1189.57 182.67C1188.74 181.235 1189.24 179.4 1190.67 178.572L1199.33 173.572C1200.77 172.743 1202.6 173.235 1203.43 174.67L1208.43 183.33C1209.26 184.765 1208.77 186.6 1207.33 187.428L1198.67 192.428Z" fill="#FF761B"/>
<path fill-rule="evenodd" clip-rule="evenodd" d="M1283.43 686.9C1283 688.5 1281.36 689.45 1279.76 689.021L1270.1 686.433C1268.5 686.004 1267.55 684.359 1267.98 682.759L1270.57 673.1C1271 671.499 1272.64 670.549 1274.24 670.978L1283.9 673.566C1285.5 673.995 1286.45 675.64 1286.02 677.241L1283.43 686.9Z" fill="#825EEE"/>
<path fill-rule="evenodd" clip-rule="evenodd" d="M873 177C871.343 177 870 175.657 870 174V170C870 168.343 871.343 167 873 167H877C878.657 167 880 168.343 880 170V174C880 175.657 878.657 177 877 177H873Z" fill="#282A5B"/>
</svg>
