<!DOCTYPE svg PUBLIC "-//W3C//DTD SVG 1.1//EN" "http://www.w3.org/Graphics/SVG/1.1/DTD/svg11.dtd">
<!-- Uploaded to: SVG Repo, www.svgrepo.com, Transformed by: SVG Repo Mixer Tools -->
<svg width="800px" height="800px" viewBox="0 0 24 24" fill="none" xmlns="http://www.w3.org/2000/svg">
<g id="SVGRepo_bgCarrier" stroke-width="0"/>
<g id="SVGRepo_tracerCarrier" stroke-linecap="round" stroke-linejoin="round"/>
<g id="SVGRepo_iconCarrier"> <path d="M21 9.6V20.4C21 20.7314 20.7314 21 20.4 21H9.6C9.26863 21 9 20.7314 9 20.4V9.6C9 9.26863 9.26863 9 9.6 9H20.4C20.7314 9 21 9.26863 21 9.6Z" stroke="#0060B5" stroke-width="1.5" stroke-linecap="round" stroke-linejoin="round"/> <path d="M15 3.6V14.4C15 14.7314 14.7314 15 14.4 15H3.6C3.26863 15 3 14.7314 3 14.4V3.6C3 3.26863 3.26863 3 3.6 3H14.4C14.7314 3 15 3.26863 15 3.6Z" stroke="#0060B5" stroke-width="1.5" stroke-linecap="round" stroke-linejoin="round"/> </g>
</svg>